<?xml version="1.0" encoding="UTF-8"?>
<!DOCTYPE svg PUBLIC "-//W3C//DTD SVG 1.1//EN" "http://www.w3.org/Graphics/SVG/1.1/DTD/svg11.dtd">
<!-- Creator: CorelDRAW X7 -->
<svg xmlns="http://www.w3.org/2000/svg" xml:space="preserve" width="41.4228mm" height="41.4228mm" version="1.1" style="shape-rendering:geometricPrecision; text-rendering:geometricPrecision; image-rendering:optimizeQuality; fill-rule:evenodd; clip-rule:evenodd"
viewBox="0 0 3392 3392"
 xmlns:xlink="http://www.w3.org/1999/xlink">
 <defs>
  <style type="text/css">
   <![CDATA[
    .fil8 {fill:none}
    .fil6 {fill:#FEFEFE}
    .fil4 {fill:#FEFEFE}
    .fil7 {fill:#2B2A29}
    .fil9 {fill:#DD1D3B}
    .fil1 {fill:#DD1D3B}
    .fil3 {fill:#9B232E}
    .fil2 {fill:#9B232E}
    .fil0 {fill:black}
    .fil5 {fill:black;fill-rule:nonzero}
   ]]>
  </style>
   <mask id="id0">
  <linearGradient id="id1" gradientUnits="userSpaceOnUse" x1="2471.73" y1="2171.92" x2="2928.66" y2="2529.85">
   <stop offset="0" style="stop-opacity:1; stop-color:white"/>
   <stop offset="1" style="stop-opacity:0; stop-color:white"/>
  </linearGradient>
    <rect style="fill:url(#id1)" x="2170" y="1771" width="1061" height="1160"/>
   </mask>
   <mask id="id2">
  <linearGradient id="id3" gradientUnits="userSpaceOnUse" x1="369.554" y1="864.19" x2="3091.35" y2="2797.99">
   <stop offset="0" style="stop-opacity:1; stop-color:white"/>
   <stop offset="1" style="stop-opacity:0; stop-color:white"/>
  </linearGradient>
    <rect style="fill:url(#id3)" x="148" y="344" width="3165" height="2975"/>
   </mask>
 </defs>
 <g id="Слой_x0020_1">
  <metadata id="CorelCorpID_0Corel-Layer"/>
  <circle class="fil0" cx="1696" cy="1696" r="1696"/>
  <circle class="fil1" cx="1696" cy="1696" r="1614"/>
  <path class="fil2" style="mask:url(#id0)" d="M3223 2222c-104,300 -248,477 -477,700l-568 -488 7 -15 49 -103 -4 -277 172 -167 281 -93 83 99 17 -10 440 354z"/>
  <path class="fil3" style="mask:url(#id2)" d="M3305 1828c-67,830 -762,1482 -1609,1482 -28,0 -55,0 -82,-2l-150 -560 -1308 -1196 262 -75 -123 -361 141 -429 0 0 307 -77 243 -258 197 152 288 175 239 155 411 32 1184 962z"/>
  <polygon class="fil4" points="178,680 392,476 507,591 656,543 668,362 960,367 962,537 1114,595 1237,485 1441,692 1329,806 1371,853 1326,874 1235,984 1196,1036 1159,887 1029,727 776,703 624,752 485,849 410,1052 426,1247 500,1404 585,1470 688,1508 888,1530 993,1489 1088,1389 1088,1457 1062,1620 1062,1675 1062,1676 1047,1682 991,1671 968,1712 960,1853 661,1864 662,1694 518,1629 392,1754 180,1534 296,1405 242,1266 68,1263 74,954 229,967 296,817 "/>
  <g id="_1017053760">
   <path class="fil5" d="M811 669c122,0 233,50 313,130 51,51 89,114 111,185l-39 52 0 0c-15,-78 -54,-148 -108,-202 -71,-71 -169,-114 -277,-114 -108,0 -206,43 -277,114 -71,71 -115,169 -115,278 0,108 44,206 115,277 71,71 169,115 277,115 108,0 206,-44 277,-115l0 68c-76,61 -172,97 -277,97 -122,0 -233,-49 -313,-129 -80,-80 -129,-191 -129,-313 0,-122 49,-233 129,-313 80,-80 191,-130 313,-130z"/>
   <path class="fil5" d="M988 521c20,6 40,13 59,21 20,8 38,17 57,27l112 -112c10,-10 26,-10 35,0l215 215c10,9 10,25 0,35l-112 112c6,11 12,22 17,34l-45 21c-8,-16 -15,-31 -24,-45 -6,-10 -5,-23 3,-32l108 -108 -179 -179 -108 108c-8,7 -20,9 -30,4 -22,-13 -45,-24 -68,-34 -23,-9 -46,-17 -70,-24 -11,-2 -20,-12 -20,-24l0 -153 -254 0 0 153 0 0c0,11 -7,21 -18,24 -25,6 -49,14 -72,24 -23,10 -45,20 -66,33 -10,6 -23,5 -32,-3l-107 -108 -180 179 108 108c8,8 10,20 4,30 -13,22 -24,44 -34,68 -9,23 -17,46 -23,70 -3,11 -13,20 -25,20l-152 0 0 254 152 0 0 0c11,0 21,7 24,18 7,25 15,49 24,72 10,23 21,45 33,66 7,10 6,23 -3,32l-108 107 180 180 107 -108c8,-8 20,-10 31,-4 21,13 44,24 67,34 23,9 46,17 70,23 12,3 20,13 20,25l0 152 254 0 0 -152 0 0c0,-11 7,-21 19,-24 24,-7 48,-15 71,-24 11,-5 23,-10 34,-16l0 0 0 55c-5,3 -10,5 -15,7 -19,8 -39,15 -59,21l0 158c0,14 -11,25 -25,25l-304 0c-14,0 -25,-11 -25,-25l0 -158c-20,-6 -40,-13 -59,-21 -19,-8 -38,-17 -57,-27l-112 112c-10,10 -25,10 -35,0l-215 -215c-10,-10 -10,-26 0,-35l112 -112c-10,-19 -19,-38 -27,-57 -8,-19 -15,-39 -21,-59l-158 0c-14,0 -26,-11 -26,-25l0 -304c0,-14 12,-25 26,-25l158 0c6,-20 13,-40 21,-59 8,-20 17,-39 27,-57l-112 -112c-10,-10 -10,-26 0,-35l215 -215c10,-10 25,-10 35,0l112 112c19,-10 38,-19 57,-27 19,-8 39,-15 59,-21l0 -159c0,-14 11,-25 25,-25l304 0c14,0 25,11 25,25l0 159z"/>
  </g>
  <path class="fil4" d="M2354 1772l-29 1 -96 30 -89 84 -71 168 -40 83 51 12 85 5 17 55 -6 38 -59 46c0,0 61,123 68,125 8,3 94,-35 94,-35l55 42 -9 94 150 36 25 -87 82 -14 45 79 128 -70 -38 -86 45 -72 94 17 36 -148 -87 -21 -5 -87 75 -44 -79 -139 -84 44 -61 -41 17 -97 -157 -34 -29 85 -74 10 -54 -79zm-2 213c0,0 -56,67 -57,73 -2,6 -11,97 -11,104 0,7 -5,65 -1,75 4,10 44,64 50,70 7,7 55,41 55,41l83 23 57 9 48 -22 75 -58 55 -70 7 -97 -39 -95 -71 -73 -103 -27 -68 1 -80 46z"/>
  <g id="_1017026752">
   <path class="fil5" d="M2553 1923c64,17 115,58 146,110 31,52 42,116 26,179 0,2 0,3 -1,4 -17,63 -57,114 -109,144 -52,31 -116,42 -179,26 -1,0 -3,0 -4,0 -63,-17 -113,-58 -144,-110 -31,-52 -42,-117 -26,-181l0 0 0 -1c17,-63 58,-114 110,-145 52,-31 117,-42 181,-26zm114 129c-27,-44 -70,-78 -124,-92 -53,-14 -108,-5 -152,21 -44,27 -78,69 -92,122l-1 2 0 0c-13,53 -4,108 22,152 26,44 69,78 122,92l1 1 0 0c54,14 108,4 153,-22 44,-26 79,-69 92,-123l0 0c14,-54 5,-108 -21,-153z"/>
   <path class="fil5" d="M2668 1873c8,6 16,11 24,17 8,6 16,12 23,19l68 -41c9,-5 21,-2 26,7l81 138c6,9 3,20 -6,26l-68 40c2,10 4,19 5,29 1,10 2,19 3,29l77 20c10,3 16,13 13,23l-40 155c-2,10 -12,16 -22,14l-77 -20c-5,8 -11,16 -17,24 -6,8 -12,16 -19,23l41 69c5,8 2,20 -7,25l-138 82c-9,5 -20,2 -26,-7l-40 -68c-10,2 -19,4 -29,5 -10,2 -19,3 -29,3l-20 77c-3,10 -13,16 -23,14l-155 -40c-10,-3 -16,-13 -14,-23l20 -77c-8,-5 -16,-11 -24,-17 -8,-6 -16,-12 -23,-18l-68 40c-9,5 -21,2 -26,-7l-82 -137c-5,-9 -2,-21 7,-26l68 -41c-2,-9 -4,-19 -5,-29 -2,-9 -3,-19 -3,-29l-77 -20c-2,0 -4,-1 -6,-2l33 -29 72 18c9,2 15,9 15,18 0,13 1,26 3,39 2,13 4,26 8,38 2,8 -1,17 -9,22l-64 38 63 105 64 -38c7,-4 16,-3 23,3 9,9 19,18 29,25 11,8 21,15 33,22 7,4 11,12 9,21l-19 72 119 31 19 -72c1,-9 9,-15 18,-15 13,0 26,-1 39,-3 13,-2 25,-4 38,-8 8,-2 17,1 21,9l38 64 106 -63 -38 -64c-4,-7 -4,-16 3,-23 9,-9 17,-19 25,-29 8,-10 15,-21 21,-33l0 0c4,-7 13,-11 21,-9l73 19 30 -119 -72 -19c-8,-1 -14,-9 -14,-18 0,-13 -1,-26 -3,-39 -2,-12 -5,-25 -8,-38 -3,-8 1,-17 8,-21l65 -38 -63 -106 -64 38c-7,5 -17,4 -23,-2 -9,-10 -19,-18 -29,-26 -11,-8 -22,-15 -33,-21l0 0c-7,-4 -11,-13 -9,-21l18 -73 -118 -30 -19 72c-2,8 -9,14 -18,14 -13,0 -26,1 -39,3 -13,2 -25,5 -38,8 -8,3 -17,-1 -21,-8l-39 -65 -36 22 7 -48 0 0 27 -15c8,-6 20,-3 25,6l41 69c9,-3 19,-5 29,-6 9,-1 19,-2 29,-3l20 -77c2,-10 13,-16 23,-13l155 40c10,2 16,12 13,22l-19 77z"/>
  </g>
  <g id="_1017064480">
   <path class="fil6" d="M1547 2414l325 0c232,133 643,236 643,523l0 149c-466,286 -1107,314 -1641,0l31 -149c58,-282 340,-353 642,-523z"/>
   <path class="fil5" d="M1547 2383l333 0 8 4c52,30 115,60 181,90 226,104 477,220 477,460l0 132 -61 34 0 -166c0,-201 -233,-308 -442,-404 -63,-30 -124,-58 -178,-88l-310 0c-71,39 -145,74 -216,106 -216,101 -404,188 -404,386l0 183 -61 -34 0 -149c0,-237 204,-332 440,-441 71,-34 146,-68 218,-109l7 -4 8 0z"/>
   <path class="fil6" d="M1547 2129l325 0 0 294c-51,19 -106,30 -162,30 -57,0 -111,-11 -163,-30l0 -294z"/>
   <path class="fil5" d="M1547 2108l346 0 0 329 -13 5c-28,10 -56,18 -84,23 -29,5 -57,8 -86,8 -29,0 -58,-3 -86,-8 -29,-5 -57,-13 -84,-23l-13 -5 0 -329 20 0zm305 41l-284 0 0 260c21,7 42,12 63,16 26,5 52,7 79,7 27,0 53,-2 79,-7 21,-4 42,-9 63,-16l0 -260z"/>
   <path class="fil6" d="M1093 1498c30,-5 67,58 83,142 15,83 4,156 -25,162 -30,5 -67,-58 -83,-142 -16,-84 -5,-156 25,-162z"/>
   <path class="fil5" d="M1087 1468c29,-5 57,15 79,52 17,28 31,69 40,114l0 3c8,45 9,86 4,118 -6,42 -25,71 -54,77 -29,5 -57,-15 -78,-52 -17,-29 -31,-69 -40,-114l-1 -3c-8,-45 -9,-86 -4,-118 7,-42 25,-71 54,-77zm26 83c-8,-14 -14,-23 -14,-23 -1,1 -3,10 -5,26l0 1c-4,26 -3,61 4,99l0 1c8,38 19,71 33,94 8,14 13,23 14,22 0,0 2,-10 5,-26l0 0c4,-26 3,-61 -5,-100l0 0c-7,-38 -19,-71 -32,-94z"/>
   <path class="fil6" d="M2329 1498c-30,-5 -67,58 -83,142 -15,83 -4,156 25,162 30,5 67,-58 83,-142 16,-84 5,-156 -25,-162z"/>
   <path class="fil5" d="M2323 1528c0,0 -6,9 -14,23 -13,23 -25,56 -32,94l-1 0c-7,39 -8,74 -4,100l0 0c3,16 4,26 5,26 1,1 6,-8 14,-22 13,-23 25,-56 33,-94l0 -1c7,-38 8,-73 4,-99l0 -1c-2,-16 -4,-25 -5,-26zm-67 -8c22,-37 50,-57 78,-52 30,6 48,35 55,77 5,32 4,73 -4,118l-1 3c-9,45 -23,85 -40,114 -21,37 -49,57 -78,52 -29,-6 -48,-35 -55,-77 -4,-32 -3,-73 5,-118l0 -3c9,-45 23,-86 40,-114z"/>
   <path class="fil6" d="M1710 865c315,0 570,320 570,715 0,395 -255,715 -570,715 -315,0 -571,-320 -571,-715 0,-395 256,-715 571,-715z"/>
   <path class="fil5" d="M1710 834c167,0 318,84 427,221 108,135 174,320 174,525 0,204 -66,390 -174,524 -109,137 -260,221 -427,221 -167,0 -319,-84 -428,-221 -107,-134 -173,-320 -173,-524 0,-205 66,-390 173,-525 109,-137 261,-221 428,-221zm379 259c-97,-122 -231,-198 -379,-198 -148,0 -282,76 -380,198 -99,124 -160,296 -160,487 0,190 61,362 160,486 98,122 232,198 380,198 148,0 282,-76 379,-198 99,-124 161,-296 161,-486 0,-191 -62,-363 -161,-487z"/>
   <path class="fil6" d="M1946 847c256,15 387,257 387,522 0,72 -32,107 -53,171 -84,-249 -131,-31 -359,-436 -185,138 -704,165 -781,441 -22,-64 -53,-104 -53,-176 0,-447 494,-778 859,-522z"/>
   <path class="fil5" d="M1957 817c126,10 224,72 292,164 76,102 115,242 115,388 0,55 -16,90 -34,128 -7,17 -15,34 -21,53l-29 86 -29 -86c-35,-103 -61,-116 -99,-136 -52,-27 -123,-65 -241,-266 -70,42 -168,74 -271,107 -202,65 -426,137 -470,299l-27 96 -32 -95c-6,-18 -14,-35 -21,-52l0 0c-17,-41 -34,-79 -34,-134 0,-138 45,-266 118,-370 58,-82 133,-150 218,-197 85,-48 180,-75 276,-75 98,0 197,28 289,90zm243 200c-59,-80 -145,-133 -256,-139l-8 -1 -7 -5c-83,-58 -173,-84 -261,-84 -85,0 -170,24 -246,67 -77,43 -145,104 -197,179 -67,94 -107,210 -107,335 0,38 10,67 23,97 86,-142 292,-209 480,-269 114,-37 220,-71 282,-117l28 -21 17 30c119,211 184,246 233,271 39,20 68,36 99,99 12,-27 22,-54 22,-90 0,-134 -34,-260 -102,-352z"/>
   <path class="fil7" d="M1623 2074l174 0c19,0 36,17 36,36l0 37c0,19 -17,36 -36,36l-174 0c-20,0 -36,-17 -36,-36l0 -37c0,-19 16,-36 36,-36z"/>
   <path class="fil8" d="M1730 2134c326,22 571,-46 589,-371"/>
   <path class="fil5" d="M1731 2114c160,10 299,-1 399,-54 98,-51 160,-144 168,-298l41 2c-9,171 -79,274 -190,333 -108,56 -254,69 -421,57l3 -40z"/>
  </g>
  <path class="fil9" d="M2228 3079l-4 -34 -146 1 -4 33 -33 0 0 -74 23 0c28,-35 32,-94 33,-144 0,-53 20,-47 49,-47l89 -1 1 192 25 0 0 74 -33 0zm-38 -74l0 -158 -31 0c-15,0 -20,-3 -21,18 -2,33 -4,65 -8,86 -5,25 -14,45 -20,54l80 0z"/>
 </g>
</svg>
